<svg width="300" height="200" viewBox="0 0 300 200" xmlns="http://www.w3.org/2000/svg">
  <defs>
    <linearGradient id="tireGradient3" x1="0%" y1="0%" x2="100%" y2="100%">
      <stop offset="0%" style="stop-color:#4b5563;stop-opacity:1" />
      <stop offset="50%" style="stop-color:#2d3748;stop-opacity:1" />
      <stop offset="100%" style="stop-color:#4b5563;stop-opacity:1" />
    </linearGradient>
    <linearGradient id="treadGradient3" x1="0%" y1="0%" x2="100%" y2="0%">
      <stop offset="0%" style="stop-color:#718096;stop-opacity:1" />
      <stop offset="50%" style="stop-color:#a0aec0;stop-opacity:1" />
      <stop offset="100%" style="stop-color:#718096;stop-opacity:1" />
    </linearGradient>
  </defs>
  
  <!-- Fond du pneu -->
  <ellipse cx="150" cy="100" rx="140" ry="60" fill="url(#tireGradient3)" stroke="#2d3748" stroke-width="2"/>
  
  <!-- Profil du pneu -->
  <ellipse cx="150" cy="100" rx="135" ry="55" fill="none" stroke="#718096" stroke-width="1"/>
  
  <!-- Sculpture de la bande de roulement -->
  <g fill="url(#treadGradient3)">
    <!-- Lignes courbes -->
    <path d="M 30 90 Q 75 85 120 90 Q 165 95 210 90 Q 255 85 270 90" stroke="url(#treadGradient3)" stroke-width="3" fill="none"/>
    <path d="M 30 100 Q 75 95 120 100 Q 165 105 210 100 Q 255 95 270 100" stroke="url(#treadGradient3)" stroke-width="3" fill="none"/>
    <path d="M 30 110 Q 75 105 120 110 Q 165 115 210 110 Q 255 105 270 110" stroke="url(#treadGradient3)" stroke-width="3" fill="none"/>
    
    <!-- Motifs en vague -->
    <path d="M 50 85 L 70 100 L 50 115" stroke="url(#treadGradient3)" stroke-width="2" fill="none"/>
    <path d="M 90 85 L 110 100 L 90 115" stroke="url(#treadGradient3)" stroke-width="2" fill="none"/>
    <path d="M 130 85 L 150 100 L 130 115" stroke="url(#treadGradient3)" stroke-width="2" fill="none"/>
    <path d="M 170 85 L 190 100 L 170 115" stroke="url(#treadGradient3)" stroke-width="2" fill="none"/>
    <path d="M 210 85 L 230 100 L 210 115" stroke="url(#treadGradient3)" stroke-width="2" fill="none"/>
  </g>
  
  <!-- Logo Bridgestone -->
  <g transform="translate(120, 70)">
    <circle cx="15" cy="15" r="12" fill="#dc2626" stroke="white" stroke-width="2"/>
    <text x="15" y="20" text-anchor="middle" fill="white" font-family="Arial, sans-serif" font-size="10" font-weight="bold">B</text>
  </g>
  
  <!-- Texte du modèle -->
  <text x="150" y="140" text-anchor="middle" fill="white" font-family="Arial, sans-serif" font-size="10" font-weight="bold">TURANZA T005</text>
  <text x="150" y="155" text-anchor="middle" fill="#9ca3af" font-family="Arial, sans-serif" font-size="8">225/45R17 91W</text>
  
  <!-- Effet de brillance -->
  <ellipse cx="120" cy="80" rx="30" ry="15" fill="white" opacity="0.1"/>
</svg>
